<svg xmlns="http://www.w3.org/2000/svg" width="64" height="64" viewBox="0 0 64 64">
    <defs>
        <style>
            .cls-2,.cls-3{fill:none;stroke-miterlimit:10;stroke-width:2px}.cls-2{stroke:#c40452}.cls-3{stroke:#111}
        </style>
    </defs>
    <g id="아이콘_05" transform="translate(-754 -3697)">
        <path id="사각형_441" fill="rgba(255,255,255,0)" d="M0 0H64V64H0z" transform="translate(754 3697)"/>
        <g id="그룹_16" transform="translate(119 3440.25)">
            <path id="패스_64" d="M660.333 287.083a5.465 5.465 0 0 0 5.333-5.713v-1.907a5.346 5.346 0 1 0-10.667 0v1.907a5.465 5.465 0 0 0 5.334 5.713z" class="cls-2" transform="translate(6.667 4.267)"/>
            <path id="패스_65" d="M672.333 291.764v-2.721c0-3.677-7.125-5.333-10.667-5.333S651 285.365 651 289.042v2.721" class="cls-2" transform="translate(5.333 7.751)"/>
            <path id="패스_66" d="M666.333 261.75a26.666 26.666 0 0 0-26.667 26.667v1.333H637l6.667 9.333L649 289.75h-2.667v-1.333a20 20 0 0 1 36.923-10.665" class="cls-3" transform="translate(0)"/>
            <path id="패스_67" d="M663.283 311.083a26.572 26.572 0 0 0 26.556-26.667v-1.333h2.667l-6.667-9.333-5.333 9.333h2.667v1.333a19.853 19.853 0 0 1-36.691 10.665" class="cls-3" transform="translate(4.494 4.667)"/>
        </g>
    </g>
</svg>
