<svg xmlns="http://www.w3.org/2000/svg" width="64" height="64" viewBox="0 0 64 64">
    <defs>
        <style>
            .cls-2,.cls-3{fill:none;stroke-miterlimit:10;stroke-width:2px}.cls-2{stroke:#111}.cls-3{stroke:#c40452}
        </style>
    </defs>
    <g id="아이콘_04" transform="translate(-754 -3697)">
        <path id="사각형_441" fill="rgba(255,255,255,0)" d="M0 0H64V64H0z" transform="translate(754 3697)"/>
        <g id="그룹_15" transform="translate(756 3698)">
            <path id="패스_60" d="M9 50.761h20.167c3.2 0 15.959-4.1 17.222-5 1.223-.86 8.739-9.451 10.594-11.992-.5-1.21-2.326-2.366-4.867-2.07-2.944.336-6.628 5.929-6.749 6.037l-8.981 2.03c-.282-.067-3.469-1.076-6.494-1.869-1.049-.269-2.756-2.608-2.756-2.8 0-1.1.39-1.062 2.272-2.044 1.237-.645 5.082-1.331 6.426-4.423 1.237-2.823.444-5.579-4.6-3.576-2.084.834-11.011 3.388-14.87 4.948-1.654.981-3.442 3.442-4.679 4.625H9" class="cls-2" transform="translate(2.017 7.55)"/>
            <path id="패스_61" d="M44.756 6.378a5.378 5.378 0 1 0-5.378 5.378 5.376 5.376 0 0 0 5.378-5.378z" class="cls-3" transform="translate(10.628 0)"/>
            <path id="패스_62" d="M31.756 15.378a5.378 5.378 0 1 0-5.378 5.378 5.376 5.376 0 0 0 5.378-5.378z" class="cls-3" transform="translate(6.475 2.978)"/>
            <path id="패스_63" d="M43.756 22.378a5.378 5.378 0 1 0-5.378 5.378 5.376 5.376 0 0 0 5.378-5.378z" class="cls-3" transform="translate(10.283 5.295)"/>
            <path id="사각형_442" d="M0 0H10.756V22.856H0z" class="cls-2" transform="translate(1 38.144)"/>
        </g>
    </g>
</svg>
