<svg data-name="logo_we display" xmlns="http://www.w3.org/2000/svg" width="240" height="34" viewBox="0 0 240 34">
    <g data-name="그룹 2343">
        <path data-name="패스 80" d="M8.024 30.735h6.227l4.137-15.355c.5-1.878.836-4.423.919-4.715.084.292.418 2.837.919 4.715l4.137 15.355h6.185l8.066-27.08h-5.809l-4.513 15.939c-.5 1.711-.961 3.755-1.045 3.964-.042-.209-.46-2.253-.878-3.964L22.358 3.655H16.3l-4.054 15.939a84.456 84.456 0 0 0-.919 3.964c-.042-.209-.543-2.295-1-3.964L5.934 3.655H0z"/>
        <path data-name="패스 81" d="M40.83 30.693h21.773v-5.007H46.681v-6.551h14.543V14.17H46.681V8.662h15.337V3.655H40.83z"/>
        <path data-name="빼기 1" d="M10.866 27.038H0v-5.007h10.615a8.191 8.191 0 0 0 8.609-8.512 8.191 8.191 0 0 0-8.609-8.512H0V0h10.866a16.561 16.561 0 0 1 6.021 1.074 13.453 13.453 0 0 1 4.568 2.916 13.181 13.181 0 0 1 3.913 9.529 13.181 13.181 0 0 1-3.913 9.529 13.453 13.453 0 0 1-4.568 2.916 16.561 16.561 0 0 1-6.021 1.074z" transform="translate(73.553 3.655)" style="stroke:transparent;stroke-miterlimit:10"/>
        <path data-name="패스 85" d="M-14.1-120.838h5.851v-8.762H-14.1z" transform="translate(87.653 144.479)" style="fill:#a50034"/>
        <path data-name="패스 87" d="M0 8.776h5.01V0H0z" transform="rotate(90 71.454 75.109)" style="fill:#a50034"/>
        <path data-name="패스 79" d="M123.013 31.152c5.433 0 11.116-2.545 11.116-8.387 0-5.8-5.767-7.594-10.573-8.721-2.675-.626-4.639-1.252-4.639-3 0-2.045 2.675-2.587 4.1-2.587a14.53 14.53 0 0 1 7.773 2.17l2.131-4.506a17.162 17.162 0 0 0-9.9-2.879c-5.182 0-10.072 2.587-10.072 7.8 0 5.633 5.224 7.344 10.281 8.512 2.382.584 4.806 1.127 4.806 3.213 0 2.128-2.758 3.171-5.015 3.171a14.052 14.052 0 0 1-8.9-2.962l-2.131 4.506c1.49 1.208 4.545 3.67 11.023 3.67z"/>
        <path data-name="빼기 2" d="M5.851 27.038H0V15.852h11.869a5.431 5.431 0 1 0 .041-10.845h-1.043V0h.751a15.869 15.869 0 0 1 5.243.82 10.754 10.754 0 0 1 3.794 2.236 9.369 9.369 0 0 1 2.305 3.316 10.568 10.568 0 0 1 .777 4.059 10.556 10.556 0 0 1-.778 4.059 9.357 9.357 0 0 1-2.31 3.316 10.783 10.783 0 0 1-3.806 2.236 16 16 0 0 1-5.268.82H5.851v6.175z" transform="translate(137.786 3.655)" style="stroke:transparent;stroke-miterlimit:10"/>
        <path data-name="패스 77" d="M164.908 30.693h21.523v-5.007h-15.672V3.655h-5.851z"/>
        <path data-name="패스 78" d="M188.73 30.693h5.976l1.839-4.3h13.749l1.839 4.3h5.934L206.282 3.655h-5.767zm9.612-8.846 3.134-7.719c.836-2.045 1.881-4.757 1.922-4.84.042.083 1.087 2.8 1.922 4.84l3.134 7.719z"/>
        <path data-name="패스 75" d="M223.315 30.693h5.851V18.426l10.069-14.771h-6.687l-4.221 6.426c-1.045 1.586-2.09 3.421-2.09 3.421a34.509 34.509 0 0 0-2.048-3.421l-4.388-6.426h-6.686l10.2 14.812z"/>
        <path data-name="패스 2231" d="M102.66 30.694h5.851V3.656h-5.851z"/>
    </g>
</svg>
