<svg data-name="logo_we display" xmlns="http://www.w3.org/2000/svg" width="148" height="21" viewBox="0 0 148 21">
    <g data-name="그룹 2343">
        <path data-name="패스 80" d="M-87.452-112.874h3.84l2.551-9.484c.309-1.16.515-2.732.567-2.912.052.18.258 1.752.567 2.912l2.551 9.484h3.814l4.974-16.726h-3.582l-2.783 9.845c-.309 1.057-.593 2.319-.644 2.448a72.62 72.62 0 0 0-.541-2.448l-2.474-9.845h-3.737l-2.5 9.845a54.413 54.413 0 0 0-.567 2.448 67.589 67.589 0 0 0-.619-2.448l-2.705-9.845h-3.66z" transform="translate(92.4 131.858)" style="fill:#fff"/>
        <path data-name="패스 81" d="M-48-112.9h13.427v-3.093h-9.819v-4.046h8.968v-3.067h-8.968v-3.4h9.458v-3.094H-48z" transform="translate(73.179 131.858)" style="fill:#fff"/>
        <path data-name="빼기 1" d="M6.7 16.7H0v-3.093h6.546a5.055 5.055 0 0 0 5.309-5.257 5.055 5.055 0 0 0-5.309-5.257H0V0h6.7a10.2 10.2 0 0 1 3.713.663 8.294 8.294 0 0 1 2.817 1.8 8.148 8.148 0 0 1 2.413 5.887 8.148 8.148 0 0 1-2.413 5.886 8.294 8.294 0 0 1-2.817 1.8A10.2 10.2 0 0 1 6.7 16.7z" transform="translate(45.358 2.258)" style="stroke:transparent;stroke-miterlimit:10;fill:#fff"/>
        <path data-name="패스 83" d="M-14.1-112.9h3.608v-16.7H-14.1z" transform="translate(77.407 131.858)" style="fill:#fff"/>
        <path data-name="패스 85" d="M-14.1-124.188h3.608v-5.412H-14.1z" transform="translate(59.458 138.79)" style="fill:#a50034"/>
        <path data-name="패스 87" d="M0 5.412h3.094V0H0z" transform="rotate(90 44.061 46.319)" style="fill:#a50034"/>
        <path data-name="패스 79" d="M-46.7-114.359c3.35 0 6.855-1.572 6.855-5.18 0-3.582-3.556-4.69-6.52-5.386-1.649-.387-2.861-.773-2.861-1.856 0-1.263 1.649-1.6 2.526-1.6a8.949 8.949 0 0 1 4.793 1.34l1.314-2.783A10.571 10.571 0 0 0-46.7-131.6c-3.2 0-6.211 1.6-6.211 4.819 0 3.479 3.221 4.536 6.34 5.257 1.469.361 2.964.7 2.964 1.984 0 1.314-1.7 1.959-3.093 1.959a8.657 8.657 0 0 1-5.489-1.83l-1.314 2.783a9.78 9.78 0 0 0 6.803 2.269z" transform="translate(122.554 133.6)" style="fill:#fff"/>
        <path data-name="빼기 2" d="M3.608 16.7H0V9.791h7.319a3.354 3.354 0 1 0 .026-6.7H6.7V0h.463A9.772 9.772 0 0 1 10.4.507a6.629 6.629 0 0 1 2.34 1.381 5.787 5.787 0 0 1 1.421 2.048 6.536 6.536 0 0 1 .479 2.507 6.529 6.529 0 0 1-.48 2.507A5.779 5.779 0 0 1 12.734 11a6.647 6.647 0 0 1-2.347 1.381 9.852 9.852 0 0 1-3.248.507H3.608V16.7z" transform="translate(84.968 2.258)" style="stroke:transparent;stroke-miterlimit:10;fill:#fff"/>
        <path data-name="패스 77" d="M-48.2-112.9h13.272v-3.093h-9.664V-129.6H-48.2z" transform="translate(149.894 131.858)" style="fill:#fff"/>
        <path data-name="패스 78" d="M-70.2-112.9h3.685l1.134-2.654h8.481l1.134 2.654h3.66l-7.268-16.7h-3.556zm5.927-5.464 1.933-4.768c.515-1.263 1.16-2.938 1.185-2.989.026.052.67 1.727 1.185 2.989l1.933 4.768z" transform="translate(186.583 131.858)" style="fill:#fff"/>
        <path data-name="패스 75" d="M-56.212-112.9h3.612v-7.577l6.211-9.123h-4.123l-2.6 3.969c-.644.979-1.289 2.113-1.289 2.113a21.322 21.322 0 0 0-1.263-2.113l-2.706-3.969h-4.13l6.288 9.149z" transform="translate(193.921 131.858)" style="fill:#fff"/>
    </g>
</svg>
